<?xml version="1.0" encoding="utf-8"?>
<!-- Generator: Adobe Illustrator 16.0.0, SVG Export Plug-In . SVG Version: 6.00 Build 0)  -->
<!DOCTYPE svg PUBLIC "-//W3C//DTD SVG 1.1//EN" "http://www.w3.org/Graphics/SVG/1.1/DTD/svg11.dtd">
<svg version="1.1" id="Layer_1" xmlns="http://www.w3.org/2000/svg" xmlns:xlink="http://www.w3.org/1999/xlink" x="0px" y="0px"
	 width="224px" height="64px" viewBox="0 0 224 64" enable-background="new 0 0 224 64" xml:space="preserve">
<path fill="#383838" d="M78,16v8h3v-8h2l1-3h-3c0,0,0-0.5,0-1.3c0-0.3,0.2-0.7,0.7-0.7c1,0,2.9,0,2.3,0V8c0,0-1.6,0-3.3,0
	C79,8,78,9.3,78,10.8s0,2.3,0,2.3h-2v3h2V16z"/>
<path fill="#383838" d="M112,24c-4.4,0-8-3.6-8-8s3.6-8,8-8c4.4,0,8,3.6,8,8S116.4,24,112,24z M118.7,17.1
	c-0.2-0.1-2.101-0.6-4.3-0.3c0.899,2.5,1.1,3.7,1.3,4.9C117.4,20.6,118.4,19,118.7,17.1z M114.7,22.3c-0.2-1.2-0.5-2.7-1.5-5.2l0,0
	c-3.9,1.3-5.2,4-5.4,4.3C109.4,22.7,112,23.2,114.7,22.3z M106.9,20.6c1.6-3.1,5.8-4.6,5.9-4.6c-0.2-0.4-0.4-0.8-0.6-1.2
	c-3.4,1-6.7,1-7,1C105.1,17.7,105.8,19.4,106.9,20.6z M105.3,14.6c0.3,0,3.1,0,6.3-0.8c-1.1-2-2.3-3.7-2.5-4
	C107.2,10.7,105.8,12.5,105.3,14.6z M110.4,9.4c0.2,0.3,1.4,1.9,2.5,4c2.399-0.9,3.5-2.3,3.6-2.5C115.3,9.8,113,8.9,110.4,9.4z
	 M117.3,11.7c-0.1,0.2-1.3,1.7-3.8,2.7c0.2,0.3,0.4,0.9,0.6,1.4c2.301-0.3,4,0,4.801,0.2C118.9,14.2,118.2,12.8,117.3,11.7z"/>
<path fill="#383838" d="M170,20c-1.1,0-2,0.9-2,2s0.9,2,2,2s2-0.9,2-2C172.1,21,171.1,20,170,20z M168,13.4v3.1
	c4.2,0,7.5,3.6,7.5,7.5h3.1C178.6,18.2,173.8,13.4,168,13.4z M168,8v3.1c7.1,0,12.9,5.8,12.9,12.9h3.1C184,15.2,176.8,8,168,8z"/>
<path fill="#383838" d="M143.1,11.8c-0.199-1.7-1.399-3-2.5-3c-1.1,0-2,1.3-1.8,2.9c0.2,1.7,1.4,3,2.5,3.1
	C142.4,14.8,143.2,13.4,143.1,11.8z M141.2,18c-1.8,0-3.4,1.1-3.4,2.6s1.3,2.6,3,2.6c2.5,0,3.4-1.1,3.4-2.6c0-0.2,0-0.3-0.101-0.5
	c-0.199-0.8-0.899-1.2-1.8-1.9C142,18.1,141.6,18,141.2,18z M143.2,8.8c1,0.4,1.5,1.6,1.5,2.9c0,1-0.601,1.9-1.3,2.6
	c-0.7,0.6-0.9,0.9-0.9,1.4s0.8,1.2,1.2,1.5c1.2,1,1.6,1.8,1.6,3.2c0,1.8-1.6,3.6-4.5,3.6c-2.6,0-4.7-1.1-4.7-2.9
	c0-1.8,2-3.6,4.5-3.6h0.801c-0.301-0.4-0.601-0.8-0.601-1.4c0-0.3,0.101-0.6,0.2-1c-0.2,0-0.3,0-0.4,0c-2.1,0-3.5-1.6-3.5-3.6
	c0-1.9,1.9-3.6,4-3.6h4.601l-1,0.8h-1.5V8.8z M151,12h-2v2h-1v-2h-2v-1h2V9h1v2h2V12z"/>
<path fill="#383838" d="M206.9,18.6c-0.4,2.2-0.9,4.3-2.5,5.4c-0.5-3.3,0.699-5.8,1.199-8.5c-0.899-1.5,0.101-4.6,2-3.9
	c2.4,0.9-2.1,5.7,0.9,6.3c3.1,0.6,4.4-5.4,2.5-7.4c-2.8-2.8-8.1-0.1-7.5,4c0.2,1,1.2,1.3,0.4,2.7c-1.801-0.4-2.301-1.8-2.2-3.7
	c0.1-3.1,2.8-5.2,5.399-5.5c3.4-0.4,6.5,1.2,7,4.4c0.5,3.6-1.5,7.4-5.1,7.2C208.1,19.5,207.7,19,206.9,18.6z"/>
<path fill="#FFFFFF" d="M78,48v8h3v-8h2l1-3h-3c0,0,0-0.5,0-1.3c0-0.3,0.2-0.7,0.7-0.7c1,0,2.9,0,2.3,0v-3c0,0-1.6,0-3.3,0
	C79,40,78,41.3,78,42.8s0,2.3,0,2.3h-2v3L78,48L78,48z"/>
<path fill="#FFFFFF" d="M112,56c-4.4,0-8-3.6-8-8s3.6-8,8-8c4.4,0,8,3.6,8,8S116.4,56,112,56z M118.7,49.1
	c-0.2-0.1-2.101-0.6-4.3-0.3c0.899,2.5,1.1,3.7,1.3,4.9C117.4,52.6,118.4,51,118.7,49.1z M114.7,54.3c-0.2-1.2-0.5-2.7-1.5-5.2l0,0
	c-3.9,1.301-5.2,4-5.4,4.301C109.4,54.7,112,55.2,114.7,54.3z M106.9,52.6c1.6-3.1,5.8-4.6,5.9-4.6c-0.2-0.4-0.4-0.8-0.6-1.2
	c-3.4,1-6.7,1-7,1C105.1,49.7,105.8,51.4,106.9,52.6z M105.3,46.6c0.3,0,3.1,0,6.3-0.8c-1.1-2-2.3-3.7-2.5-4
	C107.2,42.7,105.8,44.5,105.3,46.6z M110.4,41.4c0.2,0.3,1.4,1.899,2.5,4c2.399-0.9,3.5-2.301,3.6-2.5
	C115.3,41.8,113,40.9,110.4,41.4z M117.3,43.7c-0.1,0.2-1.3,1.7-3.8,2.7c0.2,0.3,0.4,0.899,0.6,1.399c2.301-0.3,4,0,4.801,0.2
	C118.9,46.2,118.2,44.8,117.3,43.7z"/>
<path fill="#FFFFFF" d="M170,52c-1.1,0-2,0.9-2,2s0.9,2,2,2s2-0.9,2-2C172.1,53,171.1,52,170,52z M168,45.4v3.1
	c4.2,0,7.5,3.6,7.5,7.5h3.1C178.6,50.2,173.8,45.4,168,45.4z M168,40v3.1c7.1,0,12.9,5.801,12.9,12.9h3.1C184,47.2,176.8,40,168,40z
	"/>
<path fill="#FFFFFF" d="M143.1,43.8c-0.199-1.7-1.399-3-2.5-3c-1.1,0-2,1.3-1.8,2.9c0.2,1.7,1.4,3,2.5,3.1
	C142.4,46.8,143.2,45.4,143.1,43.8z M141.2,50c-1.8,0-3.4,1.1-3.4,2.6c0,1.4,1.3,2.601,3,2.601c2.5,0,3.4-1.101,3.4-2.601
	c0-0.199,0-0.3-0.101-0.5c-0.199-0.8-0.899-1.199-1.8-1.899C142,50.1,141.6,50,141.2,50z M143.2,40.8c1,0.4,1.5,1.601,1.5,2.9
	c0,1-0.601,1.899-1.3,2.6c-0.7,0.601-0.9,0.9-0.9,1.4s0.8,1.2,1.2,1.5c1.2,1,1.6,1.8,1.6,3.2c0,1.8-1.6,3.6-4.5,3.6
	c-2.6,0-4.7-1.1-4.7-2.9c0-1.8,2-3.6,4.5-3.6h0.801c-0.301-0.4-0.601-0.8-0.601-1.4c0-0.3,0.101-0.6,0.2-1c-0.2,0-0.3,0-0.4,0
	c-2.1,0-3.5-1.6-3.5-3.6c0-1.9,1.9-3.6,4-3.6h4.601l-1,0.8h-1.5V40.8z M151,44h-2v2h-1v-2h-2v-1h2v-2h1v2h2V44z"/>
<path fill="#FFFFFF" d="M206.9,50.6c-0.4,2.2-0.9,4.301-2.5,5.4c-0.5-3.3,0.699-5.8,1.199-8.5c-0.899-1.5,0.101-4.6,2-3.9
	c2.4,0.9-2.1,5.7,0.9,6.301c3.1,0.6,4.4-5.4,2.5-7.4c-2.8-2.8-8.1-0.1-7.5,4c0.2,1,1.2,1.3,0.4,2.7c-1.801-0.4-2.301-1.8-2.2-3.7
	c0.1-3.1,2.8-5.2,5.399-5.5c3.4-0.4,6.5,1.2,7,4.4c0.5,3.6-1.5,7.399-5.1,7.199C208.1,51.5,207.7,51,206.9,50.6z"/>
<path fill="#383838" d="M20.081,22.026c-0.321,0.153-0.935,0.287-1.393,0.298c-1.383,0.036-1.65-0.971-1.662-1.702v-5.375h3.467
	v-2.614h-3.456V8.236c0,0-2.487,0-2.528,0s-0.114,0.037-0.124,0.13c-0.148,1.346-0.778,3.708-3.397,4.652v2.23h1.747v5.641
	c0,1.931,1.425,4.675,5.186,4.61c1.269-0.021,2.678-0.553,2.99-1.011L20.081,22.026"/>
<path fill="#FFFFFF" d="M20.081,53.226c-0.321,0.154-0.935,0.287-1.393,0.299c-1.383,0.036-1.65-0.971-1.662-1.701v-5.375h3.467
	v-2.613h-3.456v-4.399c0,0-2.487,0-2.528,0s-0.114,0.037-0.124,0.131c-0.148,1.345-0.778,3.708-3.397,4.651v2.23h1.747v5.641
	c0,1.932,1.425,4.676,5.186,4.61c1.269-0.021,2.678-0.553,2.99-1.011L20.081,53.226"/>
<path id="g6" transform="matrix(0.01880253,0,0,-0.01877464,-8.09169,88.053468)" fill="#383838" d="M2692.463,4200.947
	l-10.699-3.512c0,0-28.41-18.256-31.475-18.256c-1.766,0-11.66-8.582-22.176-19.037c-16.725-16.93-20.049-21.611-28.592-39.479
	c-16.309-33.445-16.541-34.252-17.27-111.051l-0.986-67.617h130.439c71.725,0,130.438,0.754,130.438,1.508
	c0,2.523,23.139,20.832,37.188,29.207c16.879,10.299,36.512,18.465,57.338,23.9c25.475,6.605,66.115,6.424,92.342-0.6
	c31.111-8.348,61.623-24.082,84.762-43.742l12.049-10.273h129.479h129.686l-0.779,68.605c-0.754,63.951-1.17,69.414-5.246,83.016
	c-8.18,27.619-18.074,43.561-41.809,67.279c-23.684,23.51-39.445,33.445-67.258,42.002l-14.594,4.447l-232.703,0.598l-232.908,0.572
	l-25.268-0.182h-14.594h-14.594C2735.232,4208.334,2711.887,4206.98,2692.463,4200.947z M3293.211,4133.484
	c3.324-1.768,7.584-6.396,9.713-10.715c3.531-6.994,3.895-11.469,3.895-53.859c0-66.891,2.131-64.732-63.959-64.732
	c-50.145,0-56.195,1.379-62.557,14.02c-3.74,7.178-3.947,10.688-3.324,56.148l0.57,48.814l7.219,6.633l7.375,6.605h47.6
	C3278.852,4136.398,3288.564,4135.826,3293.211,4133.484z M2959.805,3960.07c-68.451-9.545-124.076-64.367-135.139-133.389
	c-3.324-20.025-1.559-52.51,3.896-71.338c7.557-26.631,17.891-43.354,40.848-66.109c22.723-22.965,37.498-32.457,60.635-39.844
	c90.967-28.814,184.324,21.742,207.824,112.74c5.271,20.209,5.662,58.309,0.961,76.773c-8.518,33.289-19.035,51.338-44.898,76.85
	c-25.086,25.045-46.639,36.332-80.268,42.965C3000.238,3961.215,2973.412,3961.996,2959.805,3960.07z M3002.574,3911.828
	c15.141-3.096,45.471-17.504,54.404-25.826c15.764-14.615,28.592-35.604,35.238-57.943c4.805-15.941,4.234-42.416-0.986-59.113
	c-14.775-46.865-59.52-80.311-107.145-80.311c-17.504,0-30.902,3.512-50.535,12.822c-37.912,17.893-62.791,57.762-62.791,100.543
	c-0.207,52.273,37.707,98.385,90.215,109.619C2977.281,3915.365,2986.033,3915.365,3002.574,3911.828z M2582.02,3726.736
	l0.598-195.988l4.465-14.539c8.57-27.826,18.49-43.588,42.018-67.307c24.047-23.9,40.199-33.834,68.4-42l15.373-4.447h269.291
	h269.238l15.373,4.447c30.93,8.973,52.482,22.393,75.594,47.098c16.152,17.088,29.396,40.025,36.771,64.135l4.467,14.59l0.598,195
	l0.598,194.793H3265.01c-104.211,0-119.557-0.365-119.557-2.889c0-1.559,3.115-7.801,6.984-13.627
	c36.771-57.734,40.459-131.83,9.738-193.232c-31.473-62.625-89.434-102.857-159.99-111.049
	c-56.793-6.58-122.518,17.918-163.34,61.064c-16.309,17.111-25.449,30.715-37.525,56.201
	c-14.178,29.336-18.281,48.373-18.281,83.014c0,22.73,0.779,31.469,4.311,45.486c5.039,20.389,14.387,42.574,24.307,58.125
	c3.869,6.217,7.193,12.459,7.193,14.018c0,2.523-15.139,2.889-118.598,2.889h-118.805L2582.02,3726.736z"/>
<path id="g6_1_" transform="matrix(0.01880253,0,0,-0.01877464,-8.09169,88.053468)" fill="#FFFFFF" d="M2691.891,2525.16
	l-10.699-3.484c0,0-28.408-18.309-31.473-18.309c-1.766,0-11.66-8.531-22.178-19.037c-16.723-16.904-20.047-21.586-28.59-39.426
	c-16.309-33.498-16.543-34.277-17.27-111.104l-0.986-67.617h130.438c71.725,0,130.439,0.779,130.439,1.561
	c0,2.496,23.137,20.805,37.186,29.18c16.881,10.299,36.512,18.465,57.338,23.875c25.475,6.656,66.115,6.449,92.344-0.572
	c31.109-8.375,61.623-24.084,84.76-43.744l12.051-10.299h129.477h129.686l-0.779,68.658c-0.752,63.926-1.168,69.387-5.244,83.014
	c-8.182,27.568-18.074,43.537-41.811,67.254c-23.682,23.512-39.445,33.445-67.258,41.977l-14.594,4.473l-232.701,0.625l-232.91,0.52
	l-25.266-0.156h-14.596h-14.594C2734.66,2532.547,2711.314,2531.195,2691.891,2525.16z M3292.641,2457.699
	c3.324-1.77,7.582-6.398,9.713-10.715c3.531-6.971,3.895-11.443,3.895-53.887c0-66.891,2.129-64.705-63.961-64.705
	c-50.145,0-56.195,1.352-62.557,14.043c-3.74,7.178-3.947,10.664-3.324,56.123l0.572,48.842l7.219,6.605l7.375,6.605h47.6
	C3278.279,2460.611,3287.992,2460.039,3292.641,2457.699z M2959.234,2284.285c-68.453-9.572-124.076-64.395-135.139-133.365
	c-3.324-20.076-1.559-52.533,3.895-71.363c7.557-26.631,17.893-43.379,40.848-66.109c22.723-22.938,37.498-32.457,60.637-39.842
	c90.967-28.816,184.322,21.74,207.824,112.713c5.271,20.234,5.66,58.359,0.961,76.773c-8.518,33.289-19.035,51.391-44.9,76.877
	c-25.084,25.07-46.639,36.305-80.268,42.963C2999.666,2285.428,2972.842,2286.209,2959.234,2284.285z M3002.004,2236.016
	c15.139-3.068,45.471-17.477,54.402-25.799c15.764-14.617,28.592-35.578,35.24-57.943c4.805-15.916,4.232-42.443-0.986-59.088
	c-14.777-46.918-59.52-80.311-107.146-80.311c-17.502,0-30.902,3.484-50.533,12.795c-37.914,17.895-62.791,57.736-62.791,100.543
	c-0.209,52.275,37.705,98.359,90.213,109.594C2976.711,2239.553,2985.463,2239.553,3002.004,2236.016z M2581.447,2050.949
	l0.598-195.988l4.467-14.564c8.568-27.775,18.488-43.588,42.016-67.307c24.047-23.873,40.199-33.809,68.4-41.975l15.375-4.42
	h269.289h269.24l15.373,4.42c30.928,8.998,52.482,22.418,75.594,47.072c16.152,17.113,29.396,40.051,36.771,64.186l4.465,14.564
	l0.598,195l0.598,194.793h-119.791c-104.211,0-119.559-0.365-119.559-2.914c0-1.559,3.117-7.801,6.986-13.627
	c36.77-57.734,40.457-131.803,9.738-193.18c-31.475-62.625-89.436-102.883-159.992-111.102
	c-56.791-6.555-122.518,17.945-163.34,61.064c-16.309,17.164-25.449,30.74-37.523,56.227c-14.18,29.336-18.281,48.373-18.281,83.014
	c0,22.73,0.777,31.469,4.311,45.514c5.037,20.389,14.387,42.547,24.307,58.1c3.869,6.189,7.191,12.432,7.191,13.99
	c0,2.549-15.139,2.914-118.596,2.914h-118.805L2581.447,2050.949z"/>
</svg>
